<!-- Generated by IcoMoon.io -->
<svg version="1.1" xmlns="http://www.w3.org/2000/svg" width="1844" height="1024" viewBox="0 0 1844 1024">
<title></title>
<g id="icomoon-ignore">
</g>
<path fill="#000" d="M657.764 481.327h46.535v-43.582l34.352 43.582h43.582v-108.951h-46.535v46.535l-37.305-46.535h-40.258v108.951h-0.372zM1770.848 465.819c-10.707 0-18.833 1.848-18.833-9.231v-59.091c0-7.021 2.22-9.231 9.231-9.231s9.231 2.22 9.231 9.231v15.508h56.138c0-31.389-20.31-43.582-49.86-43.582h-34.352c-22.529 0-46.535 11.079-46.535 34.352v52.813c0 16.252 28.807 28.064 46.535 28.064h15.508c11.451 0 34.352-6.278 40.991-10.707 5.173 2.953 2.581 3.696 2.22 7.754h24.739v-59.091h-65.368v18.833h9.231v24.378h1.105zM166.589 481.327h90.108v-21.786h-34.352v-87.155h-55.766v108.951zM86.45 397.497l9.602 46.535h-16.613l7.021-46.535zM73.523 462.494h28.064l2.22 18.833h50.593l-28.807-108.579-83.097-0.372-25.111 108.579h54.29l1.848-18.461zM1096.129 391.213h8.126c6.649 0 7.383 2.953 7.383 9.602v5.906c0 10.346-5.534 9.231-15.508 9.231v-24.739zM1096.129 481.327v-46.535h15.508v49.86h52.813v-43.582c0-10.346-9.602-13.66-19.205-14.404 9.974-5.173 19.205-2.581 19.205-16.613v-9.602c0-13.66-9.231-22.158-22.529-26.587-3.325-1.105-5.906-1.477-9.602-1.477h-91.956v108.951h55.766zM1242.741 481.327h67.95l12.927-49.488h5.534l12.555 49.86h65.368l22.529-108.579h-53.546l-12.184 69.065-16.252-68.693h-45.792l-13.299 77.552h-2.22l-10.346-77.552-56.499-0.372 23.263 108.207zM362.689 459.541h-40.619v-24.739h34.352v-18.833h-34.352v-21.786h40.258v-21.786h-93.071v108.951h93.432v-21.786zM411.807 422.608l-38.038 57.986 54.29 0.733 9.974-21.786 0.372 0.372 0.372-0.372 9.974 21.786 54.29-0.733-38.409-57.986 37.666-49.488-53.546-0.733-10.707 19.205-10.707-19.205-53.546 0.733 38.038 49.488zM894.117 481.327c38.409-19.205 29.179-35.818 28.064-77.924-0.733-31.389-29.912-31.027-53.185-31.027h-74.599v108.951h99.71zM853.86 462.494h-6.278v-71.646c10.707 0 18.833-1.848 18.833 9.231v52.813c-0.372 9.974-4.058 8.859-12.555 9.602v0zM578.734 397.497l9.602 46.535h-16.613l7.021-46.535zM565.809 462.494h28.064l2.22 18.833h50.593l-28.807-108.579-83.097-0.372-25.111 108.579h54.29l1.848-18.461zM1027.436 459.541h-40.619v-24.739h34.352v-18.833h-34.352v-21.786h40.258v-21.786h-93.071v108.951h93.432v-21.786zM1485.743 397.497l9.602 46.535h-16.613l7.021-46.535zM1472.816 462.494h28.064l2.22 18.833h50.593l-28.807-108.579-83.097-0.372-25.111 108.579h54.29l1.848-18.461zM1558.866 481.327h46.535v-43.582l34.352 43.582h43.582v-108.951h-46.535v46.535l-37.305-46.535h-40.258v108.951h-0.372z"></path>
<path fill="#000" d="M750.092 662.286c2.581-4.801 7.021-11.822 10.707-15.508h322.774c2.581 3.325 8.126 10.346 10.346 15.508h-343.825z"></path>
<path fill="#000" d="M774.098 630.154h296.557c-4.801-5.534-9.974-10.707-15.147-14.404h-264.788c-6.649 3.696-12.555 8.859-16.613 14.404z"></path>
<path fill="#000" d="M810.659 600.242h81.249c2.22-12.927 2.22-24.739 2.22-33.608-23.263 1.477-54.661 12.555-83.458 33.608z"></path>
<path fill="#000" d="M719.808 767.539c36.933-2.22 90.108-27.331 124.831-67.95 6.278-7.383 12.184-14.404 16.613-22.158h-118.915c-16.613 32.493-24.739 64.264-22.529 90.108z"></path>
<path fill="#000" d="M950.627 566.634c-0.372 8.859-0.372 21.053 1.105 33.608h81.992c-28.807-21.053-60.196-32.132-83.097-33.608z"></path>
<path fill="#000" d="M922.181 564.052c-8.497 8.859-17.357 21.053-25.482 36.19h50.965c-8.126-15.147-16.252-27.331-25.482-36.19z"></path>
<path fill="#000" d="M982.748 677.431c4.43 7.754 10.346 14.775 16.613 22.158 34.713 40.619 88.259 65.74 124.831 67.95 2.581-26.226-5.534-57.986-21.786-90.108h-119.658z"></path>
<path fill="#000" d="M870.855 677.431c-0.733 9.231-1.477 18.1-1.477 28.435 0 56.138 25.482 114.485 53.185 140.711 28.064-26.226 53.185-84.573 53.185-140.711 0-10.346 0-19.205-1.477-28.435h-103.406z"></path>
</svg>
