<?xml version="1.0" encoding="utf-8"?>
<!-- Generator: Adobe Illustrator 19.2.1, SVG Export Plug-In . SVG Version: 6.00 Build 0)  -->
<svg version="1.1" id="Layer_1" xmlns="http://www.w3.org/2000/svg" xmlns:xlink="http://www.w3.org/1999/xlink" x="0px" y="0px"
	 viewBox="0 0 263.6 119.1" style="enable-background:new 0 0 263.6 119.1;" xml:space="preserve">
<style type="text/css">
	.st0{fill-rule:evenodd;clip-rule:evenodd;}
</style>
<g>
	<path class="st0" d="M103.6,97.5c1.3,0,2.6,0.1,4,0.1c1.1,0,2-0.3,2.7-1.1c0.7-0.8,1-1.7,0.9-2.8l-0.1-0.7c0-0.3-0.1-0.5-0.1-0.8
		c-1.2-10-2.8-16.9-4.5-26.8c-1.2-7.5-2.2-10.5-3.9-17.7c-1.1-4.7,5.5-7.2,10.8-8.6c1.1-0.3,1.9-1,2.3-2.1c0.4-1.1,0.3-2.2-0.3-3.1
		c-0.6-0.9-1.2-1.9-1.7-2.7c-0.5-0.8-1.3-1.3-2.2-1.5c-10.8-2.3-22.2,4.3-29.8,11.6c-2,1.9-1.8,2.8-1.4,4c0.3,0.8,0.7,1.3,1.3,2
		c0.8,1.1,2.2,1.6,3.6,1.5c3.3-0.2,6.8-0.2,8,1.1c1.1,1.2,5.2,26.2,5.9,29.9c1,5.1,1,9.4,0.9,14.2C100.2,95.8,101.7,97.4,103.6,97.5
		L103.6,97.5z M122.3,98.4c-3.1,0-4.1-1.5-4.5-3.9c-0.3-1.8-0.3-3.1-0.5-4.9c-0.1-1,0.2-2,0.9-2.7c0.7-0.8,1.6-1.2,2.6-1.2h10.4
		c1.8,0,3.3-1.5,3.3-3.3c0-1.8-1.5-3.3-3.3-3.3h-12.4c-1.7,0-3.2-1.2-3.5-2.9c-1.6-8.8-3-17.2-5.2-25.7c-0.4-1.8,0.5-3.5,2.3-4.2
		c11.8-4.3,10.9-2.1,23.7,0.5c1.2,0.2,2.1,0.3,2.8,0.3c1.8,0.2,3.2,1.8,3.1,3.6c0,1.2-0.1,2.4-0.1,3.6c0,1.9-1.6,3.5-3.5,3.5
		c-2.7,0-5.4-0.1-8.2-0.1c-1.8,0-3.3,1.5-3.3,3.3c0,1.8,1.5,3.3,3.3,3.3l3.3,0c1.7,0,3.2,0.1,4.5,0.1c1.8,0.1,3.3,1.5,3.4,3.3
		c0.4,7.6,1,14.9,1,23.1c0,0,0,2.6,0,4.9c0,1-0.4,1.9-1.1,2.6c-0.7,0.7-1.6,1-2.6,1C133.2,99,127.7,98.3,122.3,98.4L122.3,98.4z
		 M152,100c1.2,0.1,2.5,0.1,3.7,0.2c1,0,1.9-0.4,2.6-1.1c0.7-0.8,1-1.8,0.8-2.8c-0.3-2.7-0.5-5.3-0.8-8.4c0-1.8,1.5-3.2,3.2-3.2
		c1.7,0,3,1.5,3,3.2c0,0.1,0,0.2,0,0.3c0.4,3.3,0.6,4.8,0.9,8.1c0.2,2-0.4,4.2,2.8,4.2c1.6,0,3.2,0,4.7,0c1.8,0,3.3-1.6,3.3-3.5
		c0.1-9.4,0.2-18.9-0.1-28.3c0-1.2-0.6-2.2-1.5-2.8c-0.4-0.3-1-0.7-1.9-1.3c-0.6-0.4-1.3-0.9-1.9-1.3c-1.1-0.7-2.3-0.7-3.4-0.1
		c-1.1,0.6-1.7,1.8-1.7,3.1v4.4c0,1.8-1.4,3.3-3.1,3.3c-1.7,0-3.1-1.5-3.1-3.3c0-4,0-8,0-12c0-1.3-0.6-2.5-1.7-3.1
		c-1.5-0.9-3-1.7-4.5-2.6c-1-0.6-2.2-0.6-3.3,0c-1,0.6-1.7,1.7-1.7,2.9c-0.1,2.7-0.2,4.5-0.6,5.8c-0.1,0.4-0.1,0.7-0.1,1.1
		c0.3,8.1,1.1,15.5,1.1,23.9c0,3.2,0,6.5,0,9.7C148.8,98.4,150.2,100,152,100L152,100z M186,100.4c5.7-0.1,10.2-0.2,15.8-0.3
		c1.9,0,3-0.6,2.8-2.6c-0.2-2.3,0.1-4.4-0.1-6.8c-0.6-6.8-0.9-12.8-0.6-18.6c0.1-1.8-1.5-3.4-3.6-3.6c-5-0.5-9.2-1.1-14-1.4
		c-1.2-0.1-2.3,0.2-3.2,0.9c-0.9,0.7-1.3,1.6-1.3,2.7c0.2,8.3,0.1,17.8,0,26.2c0,1,0.4,1.8,1.2,2.5
		C183.9,100.1,184.9,100.5,186,100.4L186,100.4z M214.8,100.6c0.3-0.1,0.7-0.1,1-0.2c1.7-0.4,2.9-2.3,2.8-4.1
		c-0.2-2.9,1.2-6.1,4.5-4.4c1.9,1,4.6,1.9,7.3,2.2c7.1,1,10.6,0.2,15.3-0.3c5.3-0.6,10.6-1.7,9-5.4c-6.4-14.7-20.9-14-34.6-17.2
		c-2.9-0.4-5.5-0.9-7.9-1.1c-1.2-0.1-2.2,0.1-3,1c-0.8,0.8-1.2,1.9-1,3c0.7,4.9,1,11.5,1.6,14.7c0.6,3.4,0.3,5.8,0.8,8.6
		c0.2,1,0.7,2.2,1.5,2.7C212.9,100.6,213.8,100.8,214.8,100.6L214.8,100.6z M69.7,46.4c2.5-1.2,3.5-0.8,4.5,0.8
		c4.7,6.7,1.1,8.6,10.8,8.4c1.8,0,3.3,1.2,3.6,2.9c1.8,10.2,4.8,21.8,5,30.6c0,0.6,0,2.1,0,4.6c0,1-0.4,1.8-1.1,2.5
		c-0.7,0.7-1.6,1-2.5,1c-8.3-0.2-16.6-0.4-25-0.5c-1.9,0-3.5-1.6-3.5-3.6l0-1.6l0.1-6c0-12.8-1.8-20.1-2.9-31.8
		c-0.2-1.7,0.2-3.5,2.3-4.1C64.5,48.8,66.8,47.8,69.7,46.4L69.7,46.4z M49.5,51.8c-2.3-0.4-1.5-0.8-3.8-1.2c-1-0.2-1.9-0.4-2.9,0.1
		c-0.9,0.4-1.6,1.2-1.9,2.2c-1.2,4-2.9,8.1-5.6,10.5c-0.7,0.6-1.1,1.4-1.2,2.4c-0.3,5.3-1.4,13.9-6.6,14c-0.8,0-1.9,0-3.1-0.1
		c-1-0.1-2,0.3-2.7,1c-0.7,0.7-1.1,1.7-1,2.7c0.2,2.9,0.6,6.2,0.9,9.1c0.2,1.8,1.6,3.1,3.3,3.2c11.8,0.6,22.6,0.8,25.5,0.8
		c0.5,0,1.1,0,1.6,0c1.9,0,3.5-1.6,3.5-3.5l0-1.5l0.1-5.9c0-11.9-1.7-19.9-2.7-30.6C52.9,53.2,51.3,52.1,49.5,51.8L49.5,51.8z
		 M34.3,44.1c1.3,0.8,1.9,2.3,1.5,3.7c-0.7,3.1-1.9,7.3-3.4,9.6c-0.8,1.2-2,1.7-3.4,1.6c-3.9-0.5-1.7-0.2-9.2-1.1
		c-1.8,0-3.3,1.5-3.3,3.3c0,1.8,1.4,3.2,3.1,3.3c0.1,0,0.2,0,0.3,0c1.7,0.2,3.2,0.4,4.4,0.5c1,0.1,1.8,0.6,2.4,1.3
		c0.6,0.8,0.8,1.7,0.7,2.6c-0.1,0.6-0.2,1.1-0.3,1.7c-0.3,1.7-1.8,2.9-3.5,2.8c-7.1-0.2-10,0.5-9.1,11.3c0.2,2.2,0.5,4.1,0.7,6.1
		c0.1,1.1-0.2,2.2-1.1,2.9c-0.8,0.8-1.9,1.1-3,0.9c-0.7-0.1-4-0.7-4.5-0.8c-1.4-0.3-2.5-1.4-2.7-2.8c-1.3-7.8-1.7-16.9,0-25.5
		c1.4-6.9,8.5-23.1,9.1-27.1c0.5-3.4,0.2-5.2,4-4.1C18.4,35,31.1,42.1,34.3,44.1L34.3,44.1z M45.9,68.5c0.5,0.4,0.9,1,1.1,1.7
		c0.7,3.3,3.8,17.2-2.2,18.2c-8.1,1.3-5.6-14.6-5.2-18.2c0-0.1,0-0.2,0-0.3c0.1-1.7,1.5-3.2,3.3-3.2c1,0,1.9,0.5,2.5,1.2
		C45.5,68.2,45.7,68.3,45.9,68.5L45.9,68.5z M78.5,65.8c1.3,5.5,2.1,10.8,1.3,16.2c0,1.8-1.5,3.3-3.3,3.3c-1.8,0-3.2-1.4-3.3-3.2
		c0-0.1,0-0.1,0-0.2c-1-5.4-2-10.3-1.5-16c0-1.8,1.5-3.3,3.3-3.3C76.8,62.5,78.5,64,78.5,65.8L78.5,65.8z M196.1,77.3
		c1.5,5.7,1,7.5,0.9,13.1c0,0,0,0,0,0.1c0,1.8-1.7,3.2-3.8,3.2c-2.1,0-3.8-1.5-3.8-3.3c0.1-3.5,0.5-6.9-0.2-10.4
		c0-0.2-0.1-0.3-0.2-0.5c-0.6-1.6,0.3-3.4,2.2-4C193,74.8,195.3,75.6,196.1,77.3L196.1,77.3z M240.6,88.3
		c-6.7-0.2-11.8-1.5-18.6-3.3c-1.6-0.2-2.7-1.6-2.6-3.2c0.2-1.6,1.7-2,3.3-1.8c7.6,0.8,9.8,0.9,16,3.1c1.6,0.3,6.1,1.4,5.8,2.9
		C244.2,87.6,242.2,88.6,240.6,88.3L240.6,88.3z M113.1,30c-0.1-0.1-0.2-0.3-0.3-0.5C112.8,29.6,112.9,29.8,113.1,30z"/>
	<path class="st0" d="M99.7,102.9c-16.4-0.3-32.9-0.8-49.3-0.9c-4.9,0-42.2-0.4-46.3-3.2c-1.9,4.7-3.2,10-0.5,14.1
		c21.6,1.4,43.8,1.2,65.4,2c22.4,0.9,45,1,67.4,1.9c21.9,0.9,44,0.7,65.8-0.1c20.8-0.4,33.4-3.1,47-6.4c2.3-0.7,4.5-1.4,6.7-2.4
		c1.2-0.5,2.9-1.7,4-2.3c1.9-1.1,1.5-1.4,1.2-3.5c-0.2-1.4-0.8-2.4-0.9-3.2c-0.5-2.7-1.4-2.4-3.8-2.2c-20.4,4.9-32.4,8.5-53.4,8.9
		c-7.1,0.2-14.2,0.3-21.4,0.4C154.1,106.6,127.2,103.6,99.7,102.9z"/>
	<path class="st0" d="M83.9,22.6C73.8,29,66.9,40.8,52,40.1c-8.4-0.4-21.3-11.3-29.4-16c-1.6-0.8-3.6-0.2-4.4,1.4
		c-0.8,1.6-0.2,3.6,1.4,4.4c6.5,3.7,10.8,7.2,16.3,10.6c1.3,0.8,2.7,1.6,4,2.3c4.9,2.6,9.8,4.2,15.3,3.9c3.4-0.2,7.1-1.1,11.1-3
		c1.6-0.7,3.2-1.6,5-2.7c0.1,0,0.1-0.1,0.2-0.1c1-0.6,2-1.3,2.9-2c0.3-0.2,0.6-0.5,0.9-0.7c5.2-4,8.7-8.3,15.6-11.9
		c0.3-0.1,0.5-0.2,0.8-0.4c1.2-0.9,1.6-2.4,1.1-3.8c-0.7-1.7-2.5-2.5-4.2-1.8L83.9,22.6z"/>
	<path class="st0" d="M100.4,1.7c-1.7,2.7-4.6,7.6-5.5,11.6c-1.1,4.9,0.8,8,2,11.2c4.7-1.4,9.7-2,15-1.4c2.1,0.2,3.4,0.6,4.4,1.2
		c3.5-4.7,3.3-7.5,7.4-11.9C115.9,7.5,106.5,2.8,100.4,1.7L100.4,1.7z M119.4,27.9c4.4-5.8,4.1-9.1,9.5-14.1c1.9,0.1,3.8,0.2,5,0.9
		c2.3,1.6,1.6,3.1,2.4,4.5c-3.6,5.1-8.1,9-11.8,14l-1,1.5c-0.9-1.9-2.1-3.7-3-5.1C120.1,29,119.8,28.5,119.4,27.9L119.4,27.9z
		 M126.5,38.7c3.1,1,5.9,2.2,8.8,3.2c0.1-0.3,0.3-0.6,0.5-0.9c3.5-4,7.6-9.6,11.3-13.2c-0.6-1.3-0.4-2.9-1.5-4.5
		c-0.6-1-2.3-0.9-4.2-1.6c-0.3-0.1-0.6-0.1-0.9-0.2C136.4,27.5,130.8,32.5,126.5,38.7L126.5,38.7z M140.2,43.2
		c3.5-4.1,7.6-9.7,11.1-12.8c0.2-0.2,0.4-0.4,0.5-0.6c1.5-0.1,2.7-0.5,4.7,0.4c2.7,1.3,2.8,2.9,2.9,4.1c-2.9,3.7-5.7,7.1-9.2,10.4
		c-0.1,0.1-0.2,0.1-0.3,0.2c-2.4-0.7-5.5-1.3-7.3-1.4c-0.2,0-0.3,0-0.5,0C141.5,43.4,140.8,43.3,140.2,43.2L140.2,43.2z M154.5,47.1
		c3.5,2.4,6.5,4,9.3,5.3c3.3-3.6,5.6-6.6,8.2-10.3c0-0.1-0.1-0.2-0.1-0.3c-0.8-1.9-0.5-4-2.7-5.2c-2.6-1.5-3-1-5-0.6
		C160.9,40,158.2,43.4,154.5,47.1L154.5,47.1z M168.3,54.4c2.7-3,4.6-5.5,6.8-8.6l0,0c2.1,0.1,4.1-0.8,6.2,0.2
		c1.8,0.9,2.3,2.8,3,4.5c-2.5,2.2-6.2,5.3-8.6,7.6c-0.3-0.2-0.6-0.3-1-0.5C172.4,56.3,170.3,55.4,168.3,54.4L168.3,54.4z
		 M180.2,60.3c6,2.6,6.2,0.9,18.6,2.4c-1.5-1.7-2.4-3.9-5.2-5.5c-2.2-1.2-3.9-2-6-3.3C185.6,55.7,182.4,58.3,180.2,60.3z"/>
</g>
</svg>
