<?xml version="1.0" encoding="utf-8"?>
<!-- Generator: Adobe Illustrator 22.0.1, SVG Export Plug-In . SVG Version: 6.00 Build 0)  -->
<svg version="1.1" id="Layer_1" xmlns="http://www.w3.org/2000/svg" xmlns:xlink="http://www.w3.org/1999/xlink" x="0px" y="0px"
	 viewBox="0 0 1547.9 412.6" style="enable-background:new 0 0 1547.9 412.6;" xml:space="preserve">
<style type="text/css">
	.st0{fill-rule:evenodd;clip-rule:evenodd;}
</style>
<g>
	<path class="st0" d="M547.4,95.8h39.9V58.5l29.3,37.2h37.2V2.7h-39.9v39.9L581.9,2.7h-34.6V95.8L547.4,95.8z M1499.3,82.5
		c-9.2,0-16,1.6-16-8V24c0-6.1,1.8-8,8-8c6.1,0,8,1.9,8,8v13.3h47.9c0-26.8-17.4-37.2-42.5-37.2h-29.2c-19.4,0-39.9,9.5-39.9,29.2
		v45.2c0,13.8,24.6,23.9,39.9,23.9h13.3c9.8,0,29.5-5.3,35.2-9.2c4.4,2.4,2.1,3.1,2,6.6h21.3V45.3h-55.8v16h8V82.5L1499.3,82.5z
		 M127.2,95.8h77.1V77.2h-29.3V2.7h-47.9V95.8L127.2,95.8z M58.5,24l8.1,39.8l-14.1,0L58.5,24L58.5,24z M47.5,79.8h23.9l1.8,16h43.4
		L91.9,2.9l-71-0.2l-21.5,93l46.3,0.1L47.5,79.8L47.5,79.8z M922.3,18.7h6.8c5.7,0,6.4,2.5,6.4,8.3v5c0,8.8-4.8,7.8-13.3,8V18.7
		L922.3,18.7z M922.3,95.8V55.9h13.3v42.5h45.2V61.2c0-8.8-8.1-11.7-16.4-12.3c8.5-4.4,16.4-2.2,16.4-14.2v-8
		C980.8,15,973,7.8,961.5,4c-3-1-5.2-1.2-8.3-1.2l-78.8-0.1v93.1H922.3L922.3,95.8z M1047.7,95.7l58,0.1l11.2-42.4l4.8-0.1
		l10.7,42.5l55.8,0l19.2-92.9l-45.8-0.1l-10.5,59l-13.9-58.9l-39.3-0.1L1086.4,69l-1.9,0.1l-8.9-66.3l-48.4-0.4L1047.7,95.7
		L1047.7,95.7z M294.8,77.2h-5.3h-29.2V55.9h29.2v-16h-29.2V21.3h34.6l-0.1-18.6H215v93.1h79.8V77.2L294.8,77.2z M336.9,45.6
		L304.2,95l46.4,0.8l8.7-18.6l0.2,0.2v0l0,0l0,0v0l0.2-0.2l8.7,18.6l46.4-0.8l-32.7-49.4l32.3-42.2l-45.9-0.6l-9,16.5l-9-16.5
		l-45.9,0.6L336.9,45.6L336.9,45.6z M749.5,95.8c32.8-16.4,25.1-30.5,24.1-66.6c-0.8-26.7-25.5-26.5-45.3-26.5h-63.8v93.1H749.5
		L749.5,95.8z M714.9,79.8h-5.3V18.7c9.2,0,16-1.6,16,8v45.2C725.5,79.9,722.4,79.2,714.9,79.8L714.9,79.8z M479.7,24l8.1,39.8
		l-14.1,0L479.7,24L479.7,24z M468.7,79.8h23.9l1.8,16h43.4L513.1,2.9l-71-0.2l-21.5,93l46.3,0.1L468.7,79.8L468.7,79.8z
		 M863.4,77.2h-5.3h-29.2V55.9h29.2v-16h-29.2V21.3h34.6l-0.1-18.6h-79.7v93.1h79.8V77.2L863.4,77.2z M1255.6,24l8.1,39.8l-14.1,0
		L1255.6,24L1255.6,24z M1244.6,79.8h23.9l1.8,16h43.4l-24.7-92.8l-71-0.2l-21.5,93l46.3,0.1L1244.6,79.8L1244.6,79.8z M1318,95.8
		h39.9V58.5l29.2,37.2h37.2V2.7h-39.9v39.9l-31.9-39.9H1318V95.8L1318,95.8z"/>
</g>
<g>
	<path d="M626.2,250.6c2.1-4.1,5.8-10,9.3-13.4h276.2c2.1,2.7,6.9,8.9,9,13.4H626.2z"/>
	<path d="M646.8,223.1h253.5c-4.1-4.8-8.6-9.3-13.1-12.4H660.9C655.5,213.8,650.3,218.2,646.8,223.1"/>
	<path d="M678.1,197.6h69.5c2-11,2-21.3,2-28.9C729.4,170.1,702.6,179.4,678.1,197.6"/>
	<path d="M600.4,340.7c31.7-2,77.1-23.4,106.7-58.1c5.5-6.2,10.3-12.4,14.1-18.9H619.3C605.6,291.2,598.4,318.4,600.4,340.7"/>
	<path d="M797.8,168.7c-0.3,7.6-0.3,17.9,1.1,28.9h70.2C844.3,179.4,817.5,170.1,797.8,168.7"/>
	<path d="M773.5,166.7c-7.2,7.5-14.8,17.9-21.7,30.9h43.7C788.2,184.6,781.3,174.2,773.5,166.7"/>
	<path d="M825.4,263.7c3.8,6.5,9,12.7,14.1,18.9c29.6,34.7,75.4,56.1,106.7,58.1c2.1-22.4-4.8-49.5-18.6-77.1H825.4z"/>
	<path d="M729.4,263.7c-0.7,7.9-1.4,15.5-1.4,24.4c0,48.1,21.7,98.1,45.4,120.4c24.1-22.3,45.4-72.3,45.4-120.4
		c0-8.9,0-16.5-1.4-24.4H729.4z"/>
</g>
</svg>
