<?xml version="1.0" encoding="utf-8"?>
<!-- Generator: Adobe Illustrator 22.0.1, SVG Export Plug-In . SVG Version: 6.00 Build 0)  -->
<svg version="1.1" id="Layer_1" xmlns="http://www.w3.org/2000/svg" xmlns:xlink="http://www.w3.org/1999/xlink" x="0px" y="0px"
	 viewBox="0 0 595.3 841.9" style="enable-background:new 0 0 595.3 841.9;" xml:space="preserve">
<g>
	<path d="M251.1,409.2c0.7-1.3,1.9-3.2,2.9-4.2h87.4c0.7,0.9,2.2,2.8,2.8,4.2H251.1z"/>
	<path d="M257.6,400.5h80.3c-1.3-1.5-2.7-2.9-4.1-3.9h-71.7C260.3,397.6,258.7,399,257.6,400.5"/>
	<path d="M267.5,392.5h22c0.6-3.5,0.6-6.7,0.6-9.1C283.8,383.8,275.3,386.7,267.5,392.5"/>
	<path d="M242.9,437.8c10-0.6,24.4-7.4,33.8-18.4c1.7-2,3.3-3.9,4.5-6h-32.2C244.5,422.1,242.3,430.7,242.9,437.8"/>
	<path d="M305.4,383.3c-0.1,2.4-0.1,5.7,0.3,9.1H328C320.1,386.7,311.6,383.8,305.4,383.3"/>
	<path d="M297.7,382.7c-2.3,2.4-4.7,5.7-6.9,9.8h13.8C302.4,388.3,300.2,385.1,297.7,382.7"/>
	<path d="M314.1,413.4c1.2,2.1,2.8,4,4.5,6c9.4,11,23.9,17.8,33.8,18.4c0.7-7.1-1.5-15.7-5.9-24.4H314.1z"/>
	<path d="M283.8,413.4c-0.2,2.5-0.4,4.9-0.4,7.7c0,15.2,6.9,31,14.4,38.1c7.6-7.1,14.4-22.9,14.4-38.1c0-2.8,0-5.2-0.4-7.7H283.8z"
		/>
</g>
</svg>
