<?xml version="1.0" encoding="utf-8"?>
<!-- Generator: Adobe Illustrator 22.0.1, SVG Export Plug-In . SVG Version: 6.00 Build 0)  -->
<svg version="1.1" id="Layer_1" xmlns="http://www.w3.org/2000/svg" xmlns:xlink="http://www.w3.org/1999/xlink" x="0px" y="0px"
	 viewBox="0 0 595.3 841.9" style="enable-background:new 0 0 595.3 841.9;" xml:space="preserve">
<style type="text/css">
	.st0{fill-rule:evenodd;clip-rule:evenodd;}
</style>
<g>
	<path class="st0" d="M219.7,413.9h12.6v-11.8l9.3,11.8h11.8v-29.5h-12.6v12.6l-10.1-12.6h-10.9V413.9L219.7,413.9z M521.1,409.7
		c-2.9,0-5.1,0.5-5.1-2.5v-16c0-1.9,0.6-2.5,2.5-2.5s2.5,0.6,2.5,2.5v4.2h15.2c0-8.5-5.5-11.8-13.5-11.8h-9.3
		c-6.1,0-12.6,3-12.6,9.3v14.3c0,4.4,7.8,7.6,12.6,7.6h4.2c3.1,0,9.3-1.7,11.1-2.9c1.4,0.8,0.7,1,0.6,2.1h6.7v-16h-17.7v5.1h2.5
		V409.7L521.1,409.7z M86.7,413.9h24.4V408h-9.3v-23.6H86.7V413.9L86.7,413.9z M65,391.2l2.6,12.6l-4.5,0L65,391.2L65,391.2z
		 M61.5,408.8h7.6l0.6,5.1h13.7l-7.8-29.4l-22.5-0.1l-6.8,29.4l14.7,0L61.5,408.8L61.5,408.8z M338.4,389.5h2.2c1.8,0,2,0.8,2,2.6
		v1.6c0,2.8-1.5,2.5-4.2,2.5V389.5L338.4,389.5z M338.4,413.9v-12.6h4.2v13.5h14.3V403c0-2.8-2.6-3.7-5.2-3.9
		c2.7-1.4,5.2-0.7,5.2-4.5V392c0-3.7-2.5-6-6.1-7.2c-0.9-0.3-1.6-0.4-2.6-0.4l-24.9,0v29.5H338.4L338.4,413.9z M378.1,413.9l18.4,0
		l3.5-13.4l1.5,0l3.4,13.5l17.7,0l6.1-29.4l-14.5,0l-3.3,18.7l-4.4-18.6l-12.4,0l-3.6,21l-0.6,0l-2.8-21l-15.3-0.1L378.1,413.9
		L378.1,413.9z M139.8,408h-1.7h-9.3v-6.7h9.3v-5.1h-9.3v-5.9h10.9l0-5.9h-25.2v29.5h25.3V408L139.8,408z M153.1,398l-10.3,15.7
		l14.7,0.2l2.7-5.9l0.1,0.1v0l0,0l0,0v0l0.1-0.1l2.7,5.9l14.7-0.2L167.4,398l10.2-13.4l-14.5-0.2l-2.9,5.2l-2.9-5.2l-14.5,0.2
		L153.1,398L153.1,398z M283.7,413.9c10.4-5.2,7.9-9.7,7.6-21.1c-0.2-8.5-8.1-8.4-14.4-8.4h-20.2v29.5H283.7L283.7,413.9z
		 M272.8,408.8h-1.7v-19.4c2.9,0,5.1-0.5,5.1,2.5v14.3C276.1,408.9,275.1,408.6,272.8,408.8L272.8,408.8z M198.3,391.2l2.6,12.6
		l-4.5,0L198.3,391.2L198.3,391.2z M194.8,408.8h7.6l0.6,5.1h13.7l-7.8-29.4l-22.5-0.1l-6.8,29.4l14.7,0L194.8,408.8L194.8,408.8z
		 M319.8,408h-1.7h-9.3v-6.7h9.3v-5.1h-9.3v-5.9h10.9l0-5.9h-25.2v29.5h25.3V408L319.8,408z M443.9,391.2l2.6,12.6l-4.5,0
		L443.9,391.2L443.9,391.2z M440.4,408.8h7.6l0.6,5.1h13.7l-7.8-29.4l-22.5-0.1l-6.8,29.4l14.7,0L440.4,408.8L440.4,408.8z
		 M463.7,413.9h12.6v-11.8l9.3,11.8h11.8v-29.5h-12.6v12.6l-10.1-12.6h-10.9V413.9L463.7,413.9z"/>
</g>
<g>
	<path d="M244.7,462.9c0.7-1.3,1.9-3.2,2.9-4.2h87.4c0.7,0.9,2.2,2.8,2.8,4.2H244.7z"/>
	<path d="M251.2,454.2h80.3c-1.3-1.5-2.7-2.9-4.1-3.9h-71.7C253.9,451.3,252.3,452.7,251.2,454.2"/>
	<path d="M261.1,446.1h22c0.6-3.5,0.6-6.7,0.6-9.1C277.4,437.4,268.9,440.4,261.1,446.1"/>
	<path d="M236.5,491.4c10-0.6,24.4-7.4,33.8-18.4c1.7-2,3.3-3.9,4.5-6h-32.2C238.1,475.8,235.9,484.4,236.5,491.4"/>
	<path d="M299,437c-0.1,2.4-0.1,5.7,0.3,9.1h22.2C313.7,440.4,305.2,437.4,299,437"/>
	<path d="M291.3,436.3c-2.3,2.4-4.7,5.7-6.9,9.8h13.8C296,442,293.8,438.7,291.3,436.3"/>
	<path d="M307.7,467c1.2,2.1,2.8,4,4.5,6c9.4,11,23.9,17.8,33.8,18.4c0.7-7.1-1.5-15.7-5.9-24.4H307.7z"/>
	<path d="M277.4,467c-0.2,2.5-0.4,4.9-0.4,7.7c0,15.2,6.9,31,14.4,38.1c7.6-7.1,14.4-22.9,14.4-38.1c0-2.8,0-5.2-0.4-7.7H277.4z"/>
</g>
</svg>
